<mxfile host="65bd71144e">
    <diagram id="hJo8sQ85PtxI74Eq7MML" name="Page-1">
        <mxGraphModel dx="1165" dy="654" grid="1" gridSize="10" guides="1" tooltips="1" connect="1" arrows="1" fold="1" page="0" pageScale="1" pageWidth="1100" pageHeight="850" background="none" math="0" shadow="0">
            <root>
                <mxCell id="0"/>
                <mxCell id="1" parent="0"/>
                <mxCell id="Pqy75GslyoauEr8yH3ze-2" style="edgeStyle=orthogonalEdgeStyle;rounded=0;orthogonalLoop=1;jettySize=auto;html=1;" parent="1" source="Pqy75GslyoauEr8yH3ze-1" target="Pqy75GslyoauEr8yH3ze-3" edge="1">
                    <mxGeometry relative="1" as="geometry">
                        <mxPoint x="220" y="80" as="targetPoint"/>
                    </mxGeometry>
                </mxCell>
                <mxCell id="Pqy75GslyoauEr8yH3ze-4" style="edgeStyle=orthogonalEdgeStyle;rounded=0;orthogonalLoop=1;jettySize=auto;html=1;" parent="1" source="Pqy75GslyoauEr8yH3ze-1" target="Pqy75GslyoauEr8yH3ze-5" edge="1">
                    <mxGeometry relative="1" as="geometry">
                        <mxPoint x="120" y="130" as="targetPoint"/>
                    </mxGeometry>
                </mxCell>
                <mxCell id="Pqy75GslyoauEr8yH3ze-1" value="Landing page" style="rounded=0;whiteSpace=wrap;html=1;fillColor=#d5e8d4;strokeColor=#82b366;" parent="1" vertex="1">
                    <mxGeometry x="60" y="50" width="120" height="60" as="geometry"/>
                </mxCell>
                <mxCell id="Pqy75GslyoauEr8yH3ze-3" value="About" style="rounded=0;whiteSpace=wrap;html=1;fillColor=#d5e8d4;strokeColor=#82b366;" parent="1" vertex="1">
                    <mxGeometry x="220" y="50" width="120" height="60" as="geometry"/>
                </mxCell>
                <mxCell id="Pqy75GslyoauEr8yH3ze-6" style="edgeStyle=orthogonalEdgeStyle;rounded=0;orthogonalLoop=1;jettySize=auto;html=1;" parent="1" source="Pqy75GslyoauEr8yH3ze-5" target="Pqy75GslyoauEr8yH3ze-7" edge="1">
                    <mxGeometry relative="1" as="geometry">
                        <mxPoint x="220" y="160" as="targetPoint"/>
                    </mxGeometry>
                </mxCell>
                <mxCell id="Pqy75GslyoauEr8yH3ze-9" style="edgeStyle=orthogonalEdgeStyle;rounded=0;orthogonalLoop=1;jettySize=auto;html=1;" parent="1" source="Pqy75GslyoauEr8yH3ze-5" target="Pqy75GslyoauEr8yH3ze-10" edge="1">
                    <mxGeometry relative="1" as="geometry">
                        <mxPoint x="120" y="210" as="targetPoint"/>
                    </mxGeometry>
                </mxCell>
                <mxCell id="Pqy75GslyoauEr8yH3ze-5" value="Sign in&lt;br&gt;(GitHub + Google)" style="rounded=0;whiteSpace=wrap;html=1;fillColor=#d5e8d4;strokeColor=#82b366;" parent="1" vertex="1">
                    <mxGeometry x="60" y="130" width="120" height="60" as="geometry"/>
                </mxCell>
                <mxCell id="Pqy75GslyoauEr8yH3ze-15" style="edgeStyle=orthogonalEdgeStyle;rounded=0;orthogonalLoop=1;jettySize=auto;html=1;" parent="1" source="Pqy75GslyoauEr8yH3ze-7" target="Pqy75GslyoauEr8yH3ze-16" edge="1">
                    <mxGeometry relative="1" as="geometry">
                        <mxPoint x="380" y="160" as="targetPoint"/>
                    </mxGeometry>
                </mxCell>
                <mxCell id="Pqy75GslyoauEr8yH3ze-7" value="Onboard&lt;br&gt;(what + how it works)" style="rounded=0;whiteSpace=wrap;html=1;fillColor=#d5e8d4;strokeColor=#82b366;" parent="1" vertex="1">
                    <mxGeometry x="220" y="130" width="120" height="60" as="geometry"/>
                </mxCell>
                <mxCell id="Pqy75GslyoauEr8yH3ze-8" value="New&lt;br&gt;user" style="text;html=1;align=center;verticalAlign=middle;resizable=0;points=[];autosize=1;" parent="1" vertex="1">
                    <mxGeometry x="180" y="130" width="40" height="30" as="geometry"/>
                </mxCell>
                <mxCell id="Pqy75GslyoauEr8yH3ze-26" style="edgeStyle=orthogonalEdgeStyle;rounded=0;orthogonalLoop=1;jettySize=auto;html=1;entryX=0.5;entryY=1;entryDx=0;entryDy=0;" parent="1" source="Pqy75GslyoauEr8yH3ze-10" target="Pqy75GslyoauEr8yH3ze-16" edge="1">
                    <mxGeometry relative="1" as="geometry"/>
                </mxCell>
                <mxCell id="Pqy75GslyoauEr8yH3ze-30" style="edgeStyle=orthogonalEdgeStyle;rounded=0;orthogonalLoop=1;jettySize=auto;html=1;" parent="1" source="Pqy75GslyoauEr8yH3ze-10" edge="1">
                    <mxGeometry relative="1" as="geometry">
                        <mxPoint x="120" y="290" as="targetPoint"/>
                    </mxGeometry>
                </mxCell>
                <mxCell id="Pqy75GslyoauEr8yH3ze-10" value="Life" style="rounded=0;whiteSpace=wrap;html=1;fillColor=#e1d5e7;strokeColor=#9673a6;" parent="1" vertex="1">
                    <mxGeometry x="60" y="210" width="120" height="60" as="geometry"/>
                </mxCell>
                <mxCell id="Pqy75GslyoauEr8yH3ze-14" value="Existing" style="text;html=1;align=center;verticalAlign=middle;resizable=0;points=[];autosize=1;" parent="1" vertex="1">
                    <mxGeometry x="60" y="190" width="60" height="20" as="geometry"/>
                </mxCell>
                <mxCell id="Pqy75GslyoauEr8yH3ze-17" style="edgeStyle=orthogonalEdgeStyle;rounded=0;orthogonalLoop=1;jettySize=auto;html=1;" parent="1" source="Pqy75GslyoauEr8yH3ze-16" edge="1">
                    <mxGeometry relative="1" as="geometry">
                        <mxPoint x="540" y="160" as="targetPoint"/>
                    </mxGeometry>
                </mxCell>
                <mxCell id="Pqy75GslyoauEr8yH3ze-16" value="Select emotion&lt;br&gt;(happy, sad, stress...)" style="rounded=0;whiteSpace=wrap;html=1;fillColor=#d5e8d4;strokeColor=#82b366;" parent="1" vertex="1">
                    <mxGeometry x="380" y="130" width="120" height="60" as="geometry"/>
                </mxCell>
                <mxCell id="Pqy75GslyoauEr8yH3ze-19" style="edgeStyle=orthogonalEdgeStyle;rounded=0;orthogonalLoop=1;jettySize=auto;html=1;" parent="1" source="Pqy75GslyoauEr8yH3ze-18" target="Pqy75GslyoauEr8yH3ze-20" edge="1">
                    <mxGeometry relative="1" as="geometry">
                        <mxPoint x="700" y="160" as="targetPoint"/>
                    </mxGeometry>
                </mxCell>
                <mxCell id="Pqy75GslyoauEr8yH3ze-18" value="Add emotion level&lt;br&gt;(ideal + current)" style="rounded=0;whiteSpace=wrap;html=1;fillColor=#d5e8d4;strokeColor=#82b366;" parent="1" vertex="1">
                    <mxGeometry x="540" y="130" width="120" height="60" as="geometry"/>
                </mxCell>
                <mxCell id="Pqy75GslyoauEr8yH3ze-22" style="edgeStyle=orthogonalEdgeStyle;rounded=0;orthogonalLoop=1;jettySize=auto;html=1;" parent="1" source="Pqy75GslyoauEr8yH3ze-20" target="Pqy75GslyoauEr8yH3ze-10" edge="1">
                    <mxGeometry relative="1" as="geometry">
                        <mxPoint x="210" y="280" as="targetPoint"/>
                        <Array as="points">
                            <mxPoint x="920" y="160"/>
                            <mxPoint x="920" y="248"/>
                        </Array>
                    </mxGeometry>
                </mxCell>
                <mxCell id="Pqy75GslyoauEr8yH3ze-27" style="edgeStyle=orthogonalEdgeStyle;rounded=0;orthogonalLoop=1;jettySize=auto;html=1;" parent="1" source="Pqy75GslyoauEr8yH3ze-20" target="Pqy75GslyoauEr8yH3ze-28" edge="1">
                    <mxGeometry relative="1" as="geometry">
                        <mxPoint x="860" y="160" as="targetPoint"/>
                    </mxGeometry>
                </mxCell>
                <mxCell id="Pqy75GslyoauEr8yH3ze-20" value="Select task&lt;br&gt;(meditate, read, jog..)" style="rounded=0;whiteSpace=wrap;html=1;fillColor=#d5e8d4;strokeColor=#82b366;" parent="1" vertex="1">
                    <mxGeometry x="700" y="130" width="120" height="60" as="geometry"/>
                </mxCell>
                <mxCell id="Pqy75GslyoauEr8yH3ze-28" value="Select reward&lt;br&gt;(icecream, nap, game)" style="rounded=0;whiteSpace=wrap;html=1;fillColor=#d5e8d4;strokeColor=#82b366;" parent="1" vertex="1">
                    <mxGeometry x="860" y="130" width="120" height="60" as="geometry"/>
                </mxCell>
                <mxCell id="Pqy75GslyoauEr8yH3ze-29" value="Add new" style="text;html=1;align=center;verticalAlign=middle;resizable=0;points=[];autosize=1;" parent="1" vertex="1">
                    <mxGeometry x="250" y="220" width="60" height="20" as="geometry"/>
                </mxCell>
                <mxCell id="Pqy75GslyoauEr8yH3ze-31" value="Emotions" style="rounded=0;whiteSpace=wrap;html=1;fillColor=#e1d5e7;strokeColor=#9673a6;" parent="1" vertex="1">
                    <mxGeometry x="220" y="290" width="120" height="60" as="geometry"/>
                </mxCell>
                <mxCell id="Pqy75GslyoauEr8yH3ze-32" style="edgeStyle=orthogonalEdgeStyle;rounded=0;orthogonalLoop=1;jettySize=auto;html=1;" parent="1" edge="1">
                    <mxGeometry relative="1" as="geometry">
                        <mxPoint x="440" y="290" as="targetPoint"/>
                        <mxPoint x="120" y="280" as="sourcePoint"/>
                        <Array as="points">
                            <mxPoint x="310" y="280"/>
                            <mxPoint x="440" y="280"/>
                        </Array>
                    </mxGeometry>
                </mxCell>
                <mxCell id="Pqy75GslyoauEr8yH3ze-33" value="Tasks" style="rounded=0;whiteSpace=wrap;html=1;fillColor=#e1d5e7;strokeColor=#9673a6;" parent="1" vertex="1">
                    <mxGeometry x="380" y="290" width="120" height="60" as="geometry"/>
                </mxCell>
                <mxCell id="Pqy75GslyoauEr8yH3ze-34" value="Rewards" style="rounded=0;whiteSpace=wrap;html=1;fillColor=#e1d5e7;strokeColor=#9673a6;" parent="1" vertex="1">
                    <mxGeometry x="540" y="290" width="120" height="60" as="geometry"/>
                </mxCell>
                <mxCell id="Pqy75GslyoauEr8yH3ze-37" style="edgeStyle=orthogonalEdgeStyle;rounded=0;orthogonalLoop=1;jettySize=auto;html=1;" parent="1" edge="1">
                    <mxGeometry relative="1" as="geometry">
                        <mxPoint x="600" y="290" as="targetPoint"/>
                        <mxPoint x="440" y="280" as="sourcePoint"/>
                        <Array as="points">
                            <mxPoint x="470" y="280"/>
                            <mxPoint x="600" y="280"/>
                        </Array>
                    </mxGeometry>
                </mxCell>
                <mxCell id="Pqy75GslyoauEr8yH3ze-38" value="Overview" style="rounded=0;whiteSpace=wrap;html=1;fillColor=#e1d5e7;strokeColor=#9673a6;" parent="1" vertex="1">
                    <mxGeometry x="60" y="290" width="120" height="60" as="geometry"/>
                </mxCell>
                <mxCell id="Pqy75GslyoauEr8yH3ze-39" style="edgeStyle=orthogonalEdgeStyle;rounded=0;orthogonalLoop=1;jettySize=auto;html=1;" parent="1" edge="1">
                    <mxGeometry relative="1" as="geometry">
                        <mxPoint x="280" y="290" as="targetPoint"/>
                        <mxPoint x="120" y="280" as="sourcePoint"/>
                        <Array as="points">
                            <mxPoint x="150" y="280"/>
                            <mxPoint x="280" y="280"/>
                        </Array>
                    </mxGeometry>
                </mxCell>
                <mxCell id="Pqy75GslyoauEr8yH3ze-40" value="CTA" style="text;html=1;align=center;verticalAlign=middle;resizable=0;points=[];autosize=1;" parent="1" vertex="1">
                    <mxGeometry x="60" y="110" width="40" height="20" as="geometry"/>
                </mxCell>
                <mxCell id="rGz5_O_149vJJdyVbKpf-3" style="edgeStyle=orthogonalEdgeStyle;rounded=0;orthogonalLoop=1;jettySize=auto;html=1;entryX=0;entryY=0.5;entryDx=0;entryDy=0;" parent="1" source="rGz5_O_149vJJdyVbKpf-1" target="rGz5_O_149vJJdyVbKpf-2" edge="1">
                    <mxGeometry relative="1" as="geometry">
                        <mxPoint x="210" y="440" as="targetPoint"/>
                    </mxGeometry>
                </mxCell>
                <mxCell id="rGz5_O_149vJJdyVbKpf-1" value="Header" style="rounded=0;whiteSpace=wrap;html=1;fillColor=#d5e8d4;strokeColor=#82b366;" parent="1" vertex="1">
                    <mxGeometry x="60" y="410" width="120" height="60" as="geometry"/>
                </mxCell>
                <mxCell id="rGz5_O_149vJJdyVbKpf-2" value="Life" style="rounded=0;whiteSpace=wrap;html=1;fillColor=#e1d5e7;strokeColor=#9673a6;" parent="1" vertex="1">
                    <mxGeometry x="220" y="410" width="120" height="60" as="geometry"/>
                </mxCell>
                <mxCell id="rGz5_O_149vJJdyVbKpf-4" value="Profile" style="rounded=0;whiteSpace=wrap;html=1;fillColor=#e1d5e7;strokeColor=#9673a6;" parent="1" vertex="1">
                    <mxGeometry x="220" y="490" width="120" height="60" as="geometry"/>
                </mxCell>
                <mxCell id="rGz5_O_149vJJdyVbKpf-8" style="edgeStyle=orthogonalEdgeStyle;rounded=0;orthogonalLoop=1;jettySize=auto;html=1;entryX=0;entryY=0.5;entryDx=0;entryDy=0;" parent="1" target="rGz5_O_149vJJdyVbKpf-4" edge="1">
                    <mxGeometry relative="1" as="geometry">
                        <mxPoint x="230" y="450" as="targetPoint"/>
                        <mxPoint x="200" y="440" as="sourcePoint"/>
                        <Array as="points">
                            <mxPoint x="200" y="450"/>
                            <mxPoint x="200" y="520"/>
                        </Array>
                    </mxGeometry>
                </mxCell>
                <mxCell id="rGz5_O_149vJJdyVbKpf-10" value="Settings" style="rounded=0;whiteSpace=wrap;html=1;fillColor=#d5e8d4;strokeColor=#82b366;" parent="1" vertex="1">
                    <mxGeometry x="220" y="570" width="120" height="60" as="geometry"/>
                </mxCell>
                <mxCell id="rGz5_O_149vJJdyVbKpf-11" style="edgeStyle=orthogonalEdgeStyle;rounded=0;orthogonalLoop=1;jettySize=auto;html=1;entryX=0;entryY=0.5;entryDx=0;entryDy=0;" parent="1" target="rGz5_O_149vJJdyVbKpf-10" edge="1">
                    <mxGeometry relative="1" as="geometry">
                        <mxPoint x="230" y="530" as="targetPoint"/>
                        <mxPoint x="200" y="520" as="sourcePoint"/>
                        <Array as="points">
                            <mxPoint x="200" y="530"/>
                            <mxPoint x="200" y="600"/>
                        </Array>
                    </mxGeometry>
                </mxCell>
                <mxCell id="rGz5_O_149vJJdyVbKpf-12" value="About&lt;span style=&quot;color: rgba(0 , 0 , 0 , 0) ; font-family: monospace ; font-size: 0px&quot;&gt;%3CmxGraphModel%3E%3Croot%3E%3CmxCell%20id%3D%220%22%2F%3E%3CmxCell%20id%3D%221%22%20parent%3D%220%22%2F%3E%3CmxCell%20id%3D%222%22%20value%3D%22Profile%22%20style%3D%22rounded%3D0%3BwhiteSpace%3Dwrap%3Bhtml%3D1%3BfillColor%3D%23fff2cc%3BstrokeColor%3D%23d6b656%3B%22%20vertex%3D%221%22%20parent%3D%221%22%3E%3CmxGeometry%20x%3D%22220%22%20y%3D%22490%22%20width%3D%22120%22%20height%3D%2260%22%20as%3D%22geometry%22%2F%3E%3C%2FmxCell%3E%3CmxCell%20id%3D%223%22%20style%3D%22edgeStyle%3DorthogonalEdgeStyle%3Brounded%3D0%3BorthogonalLoop%3D1%3BjettySize%3Dauto%3Bhtml%3D1%3BentryX%3D0%3BentryY%3D0.5%3BentryDx%3D0%3BentryDy%3D0%3B%22%20edge%3D%221%22%20target%3D%222%22%20parent%3D%221%22%3E%3CmxGeometry%20relative%3D%221%22%20as%3D%22geometry%22%3E%3CmxPoint%20x%3D%22230%22%20y%3D%22450%22%20as%3D%22targetPoint%22%2F%3E%3CmxPoint%20x%3D%22200%22%20y%3D%22440%22%20as%3D%22sourcePoint%22%2F%3E%3CArray%20as%3D%22points%22%3E%3CmxPoint%20x%3D%22200%22%20y%3D%22450%22%2F%3E%3CmxPoint%20x%3D%22200%22%20y%3D%22520%22%2F%3E%3C%2FArray%3E%3C%2FmxGeometry%3E%3C%2FmxCell%3E%3C%2Froot%3E%3C%2FmxGraphModel%3E&lt;/span&gt;" style="rounded=0;whiteSpace=wrap;html=1;fillColor=#d5e8d4;strokeColor=#82b366;" parent="1" vertex="1">
                    <mxGeometry x="220" y="650" width="120" height="60" as="geometry"/>
                </mxCell>
                <mxCell id="rGz5_O_149vJJdyVbKpf-13" style="edgeStyle=orthogonalEdgeStyle;rounded=0;orthogonalLoop=1;jettySize=auto;html=1;entryX=0;entryY=0.5;entryDx=0;entryDy=0;" parent="1" target="rGz5_O_149vJJdyVbKpf-12" edge="1">
                    <mxGeometry relative="1" as="geometry">
                        <mxPoint x="230" y="610" as="targetPoint"/>
                        <mxPoint x="200" y="600" as="sourcePoint"/>
                        <Array as="points">
                            <mxPoint x="200" y="610"/>
                            <mxPoint x="200" y="680"/>
                        </Array>
                    </mxGeometry>
                </mxCell>
                <mxCell id="rGz5_O_149vJJdyVbKpf-17" value="" style="edgeStyle=orthogonalEdgeStyle;rounded=0;orthogonalLoop=1;jettySize=auto;html=1;" parent="1" source="rGz5_O_149vJJdyVbKpf-14" target="rGz5_O_149vJJdyVbKpf-16" edge="1">
                    <mxGeometry relative="1" as="geometry"/>
                </mxCell>
                <mxCell id="rGz5_O_149vJJdyVbKpf-14" value="Sign out" style="rounded=0;whiteSpace=wrap;html=1;fillColor=#d5e8d4;strokeColor=#82b366;" parent="1" vertex="1">
                    <mxGeometry x="220" y="730" width="120" height="60" as="geometry"/>
                </mxCell>
                <mxCell id="rGz5_O_149vJJdyVbKpf-15" style="edgeStyle=orthogonalEdgeStyle;rounded=0;orthogonalLoop=1;jettySize=auto;html=1;entryX=0;entryY=0.5;entryDx=0;entryDy=0;" parent="1" target="rGz5_O_149vJJdyVbKpf-14" edge="1">
                    <mxGeometry relative="1" as="geometry">
                        <mxPoint x="230" y="690" as="targetPoint"/>
                        <mxPoint x="200" y="680" as="sourcePoint"/>
                        <Array as="points">
                            <mxPoint x="200" y="690"/>
                            <mxPoint x="200" y="760"/>
                        </Array>
                    </mxGeometry>
                </mxCell>
                <mxCell id="rGz5_O_149vJJdyVbKpf-16" value="Landing page" style="rounded=0;whiteSpace=wrap;html=1;fillColor=#d5e8d4;strokeColor=#82b366;" parent="1" vertex="1">
                    <mxGeometry x="380" y="730" width="120" height="60" as="geometry"/>
                </mxCell>
                <mxCell id="rGz5_O_149vJJdyVbKpf-18" style="edgeStyle=orthogonalEdgeStyle;rounded=0;orthogonalLoop=1;jettySize=auto;html=1;entryX=0;entryY=0.5;entryDx=0;entryDy=0;" parent="1" edge="1">
                    <mxGeometry relative="1" as="geometry">
                        <mxPoint x="380" y="600" as="targetPoint"/>
                        <mxPoint x="340" y="600" as="sourcePoint"/>
                    </mxGeometry>
                </mxCell>
                <mxCell id="rGz5_O_149vJJdyVbKpf-19" style="edgeStyle=orthogonalEdgeStyle;rounded=0;orthogonalLoop=1;jettySize=auto;html=1;entryX=0;entryY=0.5;entryDx=0;entryDy=0;" parent="1" edge="1">
                    <mxGeometry relative="1" as="geometry">
                        <mxPoint x="380" y="680" as="targetPoint"/>
                        <mxPoint x="360" y="600" as="sourcePoint"/>
                        <Array as="points">
                            <mxPoint x="360" y="610"/>
                            <mxPoint x="360" y="680"/>
                        </Array>
                    </mxGeometry>
                </mxCell>
                <mxCell id="rGz5_O_149vJJdyVbKpf-20" value="General&lt;br&gt;(i18n, dark mode)" style="rounded=0;whiteSpace=wrap;html=1;fillColor=#d5e8d4;strokeColor=#82b366;" parent="1" vertex="1">
                    <mxGeometry x="380" y="570" width="120" height="60" as="geometry"/>
                </mxCell>
                <mxCell id="rGz5_O_149vJJdyVbKpf-21" value="Account&lt;br&gt;(delete account)" style="rounded=0;whiteSpace=wrap;html=1;fillColor=#d5e8d4;strokeColor=#82b366;" parent="1" vertex="1">
                    <mxGeometry x="380" y="650" width="120" height="60" as="geometry"/>
                </mxCell>
                <mxCell id="rGz5_O_149vJJdyVbKpf-22" value="" style="endArrow=none;dashed=1;html=1;exitX=1;exitY=0.5;exitDx=0;exitDy=0;entryX=0;entryY=0.5;entryDx=0;entryDy=0;" parent="1" source="rGz5_O_149vJJdyVbKpf-2" target="Pqy75GslyoauEr8yH3ze-10" edge="1">
                    <mxGeometry width="50" height="50" relative="1" as="geometry">
                        <mxPoint x="550" y="440" as="sourcePoint"/>
                        <mxPoint x="40" y="240" as="targetPoint"/>
                        <Array as="points">
                            <mxPoint x="440" y="440"/>
                            <mxPoint x="440" y="380"/>
                            <mxPoint x="40" y="380"/>
                            <mxPoint x="40" y="240"/>
                        </Array>
                    </mxGeometry>
                </mxCell>
                <mxCell id="rGz5_O_149vJJdyVbKpf-23" value="" style="endArrow=none;dashed=1;html=1;exitX=1;exitY=0.5;exitDx=0;exitDy=0;entryX=0;entryY=0.5;entryDx=0;entryDy=0;" parent="1" source="rGz5_O_149vJJdyVbKpf-16" target="Pqy75GslyoauEr8yH3ze-1" edge="1">
                    <mxGeometry width="50" height="50" relative="1" as="geometry">
                        <mxPoint x="540" y="520" as="sourcePoint"/>
                        <mxPoint x="590" y="470" as="targetPoint"/>
                        <Array as="points">
                            <mxPoint x="520" y="760"/>
                            <mxPoint x="520" y="810"/>
                            <mxPoint x="20" y="810"/>
                            <mxPoint x="20" y="80"/>
                        </Array>
                    </mxGeometry>
                </mxCell>
                <mxCell id="mt2zCq0oKxKGfGUo7_SP-1" value="/" style="text;html=1;align=center;verticalAlign=middle;resizable=0;points=[];autosize=1;" parent="1" vertex="1">
                    <mxGeometry x="160" y="30" width="20" height="20" as="geometry"/>
                </mxCell>
                <mxCell id="mt2zCq0oKxKGfGUo7_SP-2" value="/about" style="text;html=1;align=center;verticalAlign=middle;resizable=0;points=[];autosize=1;" parent="1" vertex="1">
                    <mxGeometry x="290" y="30" width="50" height="20" as="geometry"/>
                </mxCell>
                <mxCell id="mt2zCq0oKxKGfGUo7_SP-3" value="/enter" style="text;html=1;align=center;verticalAlign=middle;resizable=0;points=[];autosize=1;" parent="1" vertex="1">
                    <mxGeometry x="135" y="110" width="50" height="20" as="geometry"/>
                </mxCell>
                <mxCell id="mt2zCq0oKxKGfGUo7_SP-4" value="/start" style="text;html=1;align=center;verticalAlign=middle;resizable=0;points=[];autosize=1;" parent="1" vertex="1">
                    <mxGeometry x="300" y="110" width="40" height="20" as="geometry"/>
                </mxCell>
                <mxCell id="mt2zCq0oKxKGfGUo7_SP-5" value="/start" style="text;html=1;align=center;verticalAlign=middle;resizable=0;points=[];autosize=1;" parent="1" vertex="1">
                    <mxGeometry x="460" y="110" width="40" height="20" as="geometry"/>
                </mxCell>
                <mxCell id="mt2zCq0oKxKGfGUo7_SP-6" value="/start" style="text;html=1;align=center;verticalAlign=middle;resizable=0;points=[];autosize=1;" parent="1" vertex="1">
                    <mxGeometry x="620" y="110" width="40" height="20" as="geometry"/>
                </mxCell>
                <mxCell id="mt2zCq0oKxKGfGUo7_SP-7" value="/start" style="text;html=1;align=center;verticalAlign=middle;resizable=0;points=[];autosize=1;" parent="1" vertex="1">
                    <mxGeometry x="780" y="110" width="40" height="20" as="geometry"/>
                </mxCell>
                <mxCell id="mt2zCq0oKxKGfGUo7_SP-8" value="/start" style="text;html=1;align=center;verticalAlign=middle;resizable=0;points=[];autosize=1;" parent="1" vertex="1">
                    <mxGeometry x="940" y="110" width="40" height="20" as="geometry"/>
                </mxCell>
                <mxCell id="mt2zCq0oKxKGfGUo7_SP-9" value="/life" style="text;html=1;align=center;verticalAlign=middle;resizable=0;points=[];autosize=1;" parent="1" vertex="1">
                    <mxGeometry x="150" y="190" width="30" height="20" as="geometry"/>
                </mxCell>
                <mxCell id="mt2zCq0oKxKGfGUo7_SP-10" value="/life" style="text;html=1;align=center;verticalAlign=middle;resizable=0;points=[];autosize=1;" parent="1" vertex="1">
                    <mxGeometry x="150" y="350" width="30" height="20" as="geometry"/>
                </mxCell>
                <mxCell id="mt2zCq0oKxKGfGUo7_SP-11" value="/life/emotions" style="text;html=1;align=center;verticalAlign=middle;resizable=0;points=[];autosize=1;" parent="1" vertex="1">
                    <mxGeometry x="250" y="350" width="90" height="20" as="geometry"/>
                </mxCell>
                <mxCell id="mt2zCq0oKxKGfGUo7_SP-12" value="/life/tasks" style="text;html=1;align=center;verticalAlign=middle;resizable=0;points=[];autosize=1;" parent="1" vertex="1">
                    <mxGeometry x="430" y="350" width="70" height="20" as="geometry"/>
                </mxCell>
                <mxCell id="mt2zCq0oKxKGfGUo7_SP-13" value="/life/rewards" style="text;html=1;align=center;verticalAlign=middle;resizable=0;points=[];autosize=1;" parent="1" vertex="1">
                    <mxGeometry x="580" y="350" width="80" height="20" as="geometry"/>
                </mxCell>
                <mxCell id="mt2zCq0oKxKGfGUo7_SP-14" value="/life" style="text;html=1;align=center;verticalAlign=middle;resizable=0;points=[];autosize=1;" parent="1" vertex="1">
                    <mxGeometry x="310" y="390" width="30" height="20" as="geometry"/>
                </mxCell>
                <mxCell id="mt2zCq0oKxKGfGUo7_SP-15" value="/profile" style="text;html=1;align=center;verticalAlign=middle;resizable=0;points=[];autosize=1;" parent="1" vertex="1">
                    <mxGeometry x="290" y="470" width="50" height="20" as="geometry"/>
                </mxCell>
                <mxCell id="mt2zCq0oKxKGfGUo7_SP-16" value="/settings" style="text;html=1;align=center;verticalAlign=middle;resizable=0;points=[];autosize=1;" parent="1" vertex="1">
                    <mxGeometry x="280" y="550" width="60" height="20" as="geometry"/>
                </mxCell>
                <mxCell id="mt2zCq0oKxKGfGUo7_SP-17" value="/about" style="text;html=1;align=center;verticalAlign=middle;resizable=0;points=[];autosize=1;" parent="1" vertex="1">
                    <mxGeometry x="290" y="630" width="50" height="20" as="geometry"/>
                </mxCell>
                <mxCell id="mt2zCq0oKxKGfGUo7_SP-18" value="(modal)" style="text;html=1;align=center;verticalAlign=middle;resizable=0;points=[];autosize=1;" parent="1" vertex="1">
                    <mxGeometry x="270" y="710" width="60" height="20" as="geometry"/>
                </mxCell>
                <mxCell id="mt2zCq0oKxKGfGUo7_SP-19" value="/settings/general" style="text;html=1;align=center;verticalAlign=middle;resizable=0;points=[];autosize=1;" parent="1" vertex="1">
                    <mxGeometry x="400" y="550" width="100" height="20" as="geometry"/>
                </mxCell>
                <mxCell id="mt2zCq0oKxKGfGUo7_SP-20" value="/settings/account" style="text;html=1;align=center;verticalAlign=middle;resizable=0;points=[];autosize=1;" parent="1" vertex="1">
                    <mxGeometry x="390" y="630" width="110" height="20" as="geometry"/>
                </mxCell>
                <mxCell id="mt2zCq0oKxKGfGUo7_SP-24" value="/" style="text;html=1;align=center;verticalAlign=middle;resizable=0;points=[];autosize=1;" parent="1" vertex="1">
                    <mxGeometry x="480" y="710" width="20" height="20" as="geometry"/>
                </mxCell>
                <mxCell id="ZC-CI7ygaL79zG18Kw0I-2" value="" style="endArrow=none;dashed=1;html=1;exitX=1;exitY=0.5;exitDx=0;exitDy=0;" parent="1" source="rGz5_O_149vJJdyVbKpf-21" edge="1">
                    <mxGeometry width="50" height="50" relative="1" as="geometry">
                        <mxPoint x="570" y="700" as="sourcePoint"/>
                        <mxPoint x="520" y="770" as="targetPoint"/>
                        <Array as="points">
                            <mxPoint x="520" y="680"/>
                        </Array>
                    </mxGeometry>
                </mxCell>
            </root>
        </mxGraphModel>
    </diagram>
</mxfile>